# File created by Blade
# Date/Time:  Thu Jan 22 19:29:47 2015
#---------------------------------------------------------
:version 1.10
:name HOM
:units
  mass 1.0
  length 1.000000
  angle deg
:documentation
     Acclaim Skeleton File
:root
   axis xyz
   order TX TY TZ RX RY RZ
   position 0.000000 0.000000 0.000000
   orientation 0 0 0
:bonedata
   begin
      id 1
      name RightUpLeg_dum
      direction -1.000000 0.000000 0.000000
      length 4.478084
      axis 0.0 0.0 0.0 xyz
   end
   begin
      id 2
      name LeftUpLeg_dum
      direction 1.000000 0.000000 0.000000
      length 4.478084
      axis 0.0 0.0 0.0 xyz
   end
   begin
      id 3
      name Spine_dum
      direction 0.000000 1.000000 0.000000
      length 6.068208
      axis 0.0 0.0 0.0 xyz
   end
   begin
      id 4
      name RightUpLeg
      direction 0.000000 -1.000000 0.000000
      length 16.405774
      axis 0.0 0.0 0.0 xyz
      dof rx ry rz
   end
   begin
      id 5
      name RightLeg
      direction 0.000000 -1.000000 0.000000
      length 14.644143
      axis 0.0 0.0 0.0 xyz
      dof rx ry rz
   end
   begin
      id 6
      name RightFoot
      direction 0.000000 -0.258819 0.965926
      length 5.806150
      axis 15.0 0.0 0.0 xyz
      dof rx ry rz
   end
   begin
      id 7
      name RightToeBase
      direction 0.000000 0.000000 1.000000
      length 2.952750
      axis 0.0 0.0 0.0 xyz
      dof rx ry rz
   end
   begin
      id 8
      name LeftUpLeg
      direction 0.000000 -1.000000 0.000000
      length 16.405774
      axis 0.0 0.0 0.0 xyz
      dof rx ry rz
   end
   begin
      id 9
      name LeftLeg
      direction 0.000000 -1.000000 0.000000
      length 14.644143
      axis 0.0 0.0 0.0 xyz
      dof rx ry rz
   end
   begin
      id 10
      name LeftFoot
      direction 0.000000 -0.258819 0.965926
      length 5.806150
      axis 15.0 0.0 0.0 xyz
      dof rx ry rz
   end
   begin
      id 11
      name LeftToeBase
      direction 0.000000 0.000000 1.000000
      length 2.952750
      axis 0.0 0.0 0.0 xyz
      dof rx ry rz
   end
   begin
      id 12
      name Spine
      direction 0.000000 1.000000 0.000000
      length 0.000000
      axis 0.0 0.0 0.0 xyz
      dof rx ry rz
   end
   begin
      id 13
      name Spine_dum1
      direction 0.000000 1.000000 0.000000
      length 10.013923
      axis 0.0 0.0 0.0 xyz
   end
   begin
      id 14
      name Spine_dum2
      direction 0.000000 1.000000 0.000000
      length 10.013923
      axis 0.0 0.0 0.0 xyz
   end
   begin
      id 15
      name Spine_dum3
      direction 0.000000 1.000000 0.000000
      length 15.777476
      axis 0.0 0.0 0.0 xyz
   end
   begin
      id 16
      name RightShoulder
      direction -1.000000 0.000000 0.000000
      length 7.190220
      axis 0.0 0.0 90.0 xyz
      dof rx ry rz
   end
   begin
      id 17
      name RightArm
      direction -1.000000 0.000000 0.000000
      length 10.177469
      axis 0.0 0.0 90.0 xyz
      dof rx ry rz
   end
   begin
      id 18
      name RightForeArm
      direction -1.000000 0.000000 0.000000
      length 8.392114
      axis 0.0 0.0 90.0 xyz
      dof ry rz rx
   end
   begin
      id 19
      name RightHand
      direction -1.000000 0.000000 0.000000
      length 0.000000
      axis 0.0 0.0 90.0 xyz
      dof rx ry rz
   end
   begin
      id 20
      name RightHand_dum1
      direction -1.000000 0.000000 0.000000
      length 3.937000
      axis 0.0 0.0 90.0 xyz
   end
   begin
      id 21
      name RightHand_dum2
      direction 0.000000 0.000000 0.000000
      length 0.000000
      axis 0.0 0.0 90.0 xyz
   end
   begin
      id 22
      name RightHandThumb1
      direction 0.000000 0.000000 1.000000
      length 3.937000
      axis 0.0 0.0 90.0 xyz
      dof rx rz ry
   end
   begin
      id 23
      name LeftShoulder
      direction 1.000000 0.000000 0.000000
      length 7.190220
      axis 0.0 0.0 -90.0 xyz
      dof rx ry rz
   end
   begin
      id 24
      name LeftArm
      direction 1.000000 0.000000 0.000000
      length 10.177469
      axis 0.0 0.0 -90.0 xyz
      dof rx ry rz
   end
   begin
      id 25
      name LeftForeArm
      direction 1.000000 0.000000 0.000000
      length 8.392114
      axis 0.0 0.0 -90.0 xyz
      dof ry rz rx
   end
   begin
      id 26
      name LeftHand
      direction 1.000000 0.000000 0.000000
      length 0.000000
      axis 0.0 0.0 -90.0 xyz
      dof rx ry rz
   end
   begin
      id 27
      name LeftHand_dum1
      direction 1.000000 0.000000 0.000000
      length 3.937000
      axis 0.0 0.0 -90.0 xyz
   end
   begin
      id 28
      name LeftHand_dum2
      direction 0.000000 0.000000 0.000000
      length 0.000000
      axis 0.0 0.0 -90.0 xyz
   end
   begin
      id 29
      name LeftHandThumb1
      direction 0.000000 0.000000 1.000000
      length 3.937000
      axis 0.0 0.0 -90.0 xyz
      dof rx rz ry
   end
   begin
      id 30
      name Head
      direction 0.000000 1.000000 0.000000
      length 4.527550
      axis 0.0 0.0 0.0 xyz
      dof rx ry rz
   end
:hierarchy
   begin
      root RightUpLeg_dum LeftUpLeg_dum Spine_dum
      RightUpLeg_dum RightUpLeg
      LeftUpLeg_dum LeftUpLeg
      Spine_dum Spine
      RightUpLeg RightLeg
      RightLeg RightFoot
      RightFoot RightToeBase
      LeftUpLeg LeftLeg
      LeftLeg LeftFoot
      LeftFoot LeftToeBase
      Spine Spine_dum1 Spine_dum2 Spine_dum3
      Spine_dum1 RightShoulder
      Spine_dum2 LeftShoulder
      Spine_dum3 Head
      RightShoulder RightArm
      RightArm RightForeArm
      RightForeArm RightHand
      RightHand RightHand_dum1 RightHand_dum2
      RightHand_dum2 RightHandThumb1
      LeftShoulder LeftArm
      LeftArm LeftForeArm
      LeftForeArm LeftHand
      LeftHand LeftHand_dum1 LeftHand_dum2
      LeftHand_dum2 LeftHandThumb1
   end

# File created by Blade
# Date/Time:  Thu Jan 22 19:29:39 2015
# Frame Rate: 120.000 fps
#------------------------------------------------------
:FULLY-SPECIFIED
:DEGREES
588
root 1.754564 33.873099 1.713871 18.520800 -3.182456 -15.819922
RightUpLeg -44.704054 19.384551 -36.509167
RightLeg 152.248725 -0.000000 -0.000000
RightFoot 38.115836 29.527473 -3.660012
RightToeBase -9.948090 -0.000000 0.000000
LeftUpLeg -23.289258 1.445168 7.611388
LeftLeg 20.160320 -0.000000 -0.000000
LeftFoot -16.791596 0.695358 -3.798678
LeftToeBase 6.486577 -0.000000 -0.000000
Spine 6.772246 -11.881940 25.327275
RightShoulder -8.928061 -21.224588 -10.136396
RightArm 18.681109 -10.331514 62.436342
RightForeArm 1.113295 0.000000 11.399937
RightHand 6.414906 -0.000000 28.977365
RightHandThumb1 -24.326973 -0.000000 -32.862282
LeftShoulder -16.207423 -10.760653 35.242280
LeftArm 62.936923 -6.772413 -80.428445
LeftForeArm -9.456917 0.000000 46.308659
LeftHand -6.354818 0.000000 16.039624
LeftHandThumb1 -26.253704 0.000000 33.147579
Head -4.933584 16.846055 -15.483155
589
root 1.728793 33.850159 1.738582 18.654638 -3.189591 -15.570958
RightUpLeg -43.696326 19.688752 -35.696918
RightLeg 152.401858 -0.000000 -0.000000
RightFoot 37.931471 28.873678 -3.884741
RightToeBase -10.254715 -0.000000 0.000000
LeftUpLeg -23.472670 1.593101 7.363294
LeftLeg 20.314528 -0.000000 -0.000000
LeftFoot -16.873502 0.464770 -3.662336
LeftToeBase 6.455323 -0.000000 -0.000000
Spine 6.440464 -11.951741 24.951674
RightShoulder -9.103963 -21.338045 -10.057128
RightArm 18.565847 -10.689862 62.647246
RightForeArm 0.823833 0.000000 11.374081
RightHand 6.371781 -0.000000 29.335350
RightHandThumb1 -24.326973 -0.000000 -32.862282
LeftShoulder -16.201644 -10.593339 35.214575
LeftArm 63.130183 -6.840837 -80.236275
LeftForeArm -9.489935 -0.000000 45.915271
LeftHand -6.278629 0.000000 15.989649
LeftHandThumb1 -26.253704 0.000000 33.147579
Head -4.738865 16.948062 -15.362519
590
root 1.706883 33.829515 1.761086 18.773597 -3.196110 -15.317691
RightUpLeg -42.643417 20.159573 -34.989518
RightLeg 152.555086 -0.000000 -0.000000
RightFoot 37.681228 28.675030 -4.003998
RightToeBase -10.857188 -0.000000 0.000000
LeftUpLeg -23.611595 1.646893 7.120457
LeftLeg 20.395323 -0.000000 -0.000000
LeftFoot -16.868699 0.270686 -3.705368
LeftToeBase 6.132424 -0.000000 -0.000000
Spine 6.143990 -12.021205 24.589126
RightShoulder -9.247533 -21.420712 -10.064115
RightArm 18.608293 -11.591287 62.725057
RightForeArm 0.917411 -0.000000 11.091936
RightHand 6.239475 -0.000000 29.364478
RightHandThumb1 -24.326973 -0.000000 -32.862282
LeftShoulder -16.178340 -10.494859 35.165236
LeftArm 63.280251 -6.931557 -80.016267
LeftForeArm -9.561885 -0.000000 45.561043
LeftHand -6.338022 -0.000000 15.870451
LeftHandThumb1 -26.253704 0.000000 33.147579
Head -4.545132 17.027898 -15.278628
591
root 1.679676 33.810026 1.777931 18.945614 -3.201473 -15.077335
RightUpLeg -41.691118 20.491208 -34.226819
RightLeg 152.757191 -0.000000 -0.000000
RightFoot 37.595320 28.263206 -3.874932
RightToeBase -10.860297 -0.000000 0.000000
LeftUpLeg -23.830071 1.680581 6.903297
LeftLeg 20.517417 -0.000000 -0.000000
LeftFoot -16.912246 0.189329 -3.516794
LeftToeBase 5.926127 -0.000000 -0.000000
Spine 5.806554 -12.047200 24.226732
RightShoulder -9.369439 -21.553286 -10.064876
RightArm 18.737603 -12.765233 62.723420
RightForeArm 1.267244 -0.000000 10.720871
RightHand 6.107902 -0.000000 29.431160
RightHandThumb1 -24.326973 -0.000000 -32.862282
LeftShoulder -16.158418 -10.362559 35.162460
LeftArm 63.470260 -7.012434 -79.856974
LeftForeArm -9.569021 -0.000000 45.179018
LeftHand -6.281332 -0.000000 15.814278
LeftHandThumb1 -26.253704 0.000000 33.147579
Head -4.328641 17.093765 -15.140137
592
root 1.656632 33.792694 1.794339 19.083468 -3.226133 -14.856355
RightUpLeg -40.730072 20.807237 -33.442242
RightLeg 152.943461 -0.000000 -0.000000
RightFoot 37.419706 27.987487 -4.106894
RightToeBase -10.854299 -0.000000 0.000000
LeftUpLeg -23.990665 1.623226 6.706232
LeftLeg 20.605616 -0.000000 -0.000000
LeftFoot -17.008340 0.318167 -3.197028
LeftToeBase 6.010242 -0.000000 -0.000000
Spine 5.542788 -12.062215 23.900312
RightShoulder -9.423663 -21.652728 -10.125055
RightArm 18.795804 -13.771937 62.834954
RightForeArm 1.615531 -0.000000 10.342754
RightHand 6.029112 -0.000000 29.716042
RightHandThumb1 -24.326973 -0.000000 -32.862282
LeftShoulder -16.137615 -10.262209 35.164581
LeftArm 63.628100 -7.101713 -79.705230
LeftForeArm -9.603621 -0.000000 44.833254
LeftHand -6.296895 -0.000000 15.935631
LeftHandThumb1 -26.253704 0.000000 33.147579
Head -4.170446 17.165831 -15.083876
593
root 1.632516 33.776897 1.807268 19.241059 -3.259278 -14.658411
RightUpLeg -39.802368 21.054575 -32.619547
RightLeg 153.160732 -0.000000 -0.000000
RightFoot 37.230983 27.462425 -4.157454
RightToeBase -10.647982 -0.000000 0.000000
LeftUpLeg -24.175838 1.488083 6.550002
LeftLeg 20.695508 -0.000000 -0.000000
LeftFoot -17.064591 0.485698 -3.036476
LeftToeBase 5.934933 -0.000000 -0.000000
Spine 5.294210 -12.068825 23.595793
RightShoulder -9.441651 -21.852891 -10.161439
RightArm 18.866893 -14.564162 63.014730
RightForeArm 1.900048 -0.000000 10.034250
RightHand 5.971138 -0.000000 29.827824
RightHandThumb1 -24.326973 -0.000000 -32.862282
LeftShoulder -16.148395 -10.153018 35.179600
LeftArm 63.812783 -7.191453 -79.585629
LeftForeArm -9.483256 0.000000 44.495474
LeftHand -6.303781 -0.000000 15.960198
LeftHandThumb1 -26.253704 0.000000 33.147579
Head -4.072173 17.264069 -15.053084
